<svg width="46" height="59" viewBox="0 0 46 59" fill="none" xmlns="http://www.w3.org/2000/svg">
<ellipse cx="22.6838" cy="56.9171" rx="20.1582" ry="1.18577" fill="#DEB41E" fill-opacity="0.39"/>
<path fill-rule="evenodd" clip-rule="evenodd" d="M6.5988 6.59879C-2.1996 15.3972 -2.1996 29.6622 6.5988 38.4606L15.822 47.6838C16.965 48.8268 18.3272 49.6172 19.7733 50.0548L19.7652 44.9169L18.6365 43.8926C16.6097 42.0221 15.1534 39.94 14.8014 38.3812C14.7164 37.9804 14.6679 35.2192 14.6679 29.9751C14.6679 22.5376 14.68 22.1479 14.8985 21.8139C15.0199 21.6357 15.3111 21.3908 15.5296 21.2906C16.0757 21.0345 17.1073 21.0902 17.5564 21.4019C17.6534 21.4674 17.7355 21.5198 17.8051 21.5854C18.1962 21.9552 18.1875 22.748 18.1875 28.6947V35.2414H19.4375H20.6997L20.7726 32.8142C20.8211 31.4893 20.8575 28.5388 20.8575 26.2786C20.8575 22.4485 20.8696 22.1368 21.0881 21.8139C21.7071 20.8897 23.4426 20.8786 24.1829 21.8027C24.4243 22.1017 24.4256 22.2795 24.4733 28.5657L24.4742 28.6724L24.5227 35.2414H25.7849H27.0471V28.7726C27.0471 22.9057 27.0311 21.9638 27.4863 21.5786C27.5917 21.4893 27.7225 21.43 27.8845 21.3462C28.8433 20.8452 30.0084 21.1458 30.4817 21.992C30.6759 22.3594 30.688 22.905 30.6516 30.2868C30.6274 37.6018 30.6031 38.2365 30.3968 38.8043C29.8142 40.4076 28.6977 41.9441 26.8529 43.6921L25.5907 44.8946L25.5827 49.9597C26.9182 49.507 28.1729 48.7483 29.2375 47.6838L38.4606 38.4606C47.259 29.6622 47.259 15.3972 38.4606 6.59879C29.6622 -2.1996 15.3972 -2.1996 6.5988 6.59879Z" fill="#DEB41E"/>
</svg>
